<svg id="svg" version="1.1" xmlns="http://www.w3.org/2000/svg" xmlns:xlink="http://www.w3.org/1999/xlink" width="400" height="400" viewBox="0, 0, 400,400"><g id="svgg"><path id="path0" d="M296.000 180.394 C 295.010 180.577,292.850 180.929,291.200 181.176 C 288.198 181.627,286.009 182.190,284.705 182.849 C 284.323 183.042,283.826 183.200,283.601 183.200 C 282.358 183.200,273.713 187.607,270.190 190.038 C 260.705 196.579,253.450 207.614,251.279 218.800 C 251.044 220.010,250.660 221.959,250.426 223.131 C 249.873 225.896,249.879 233.776,250.437 237.154 C 250.961 240.325,252.330 246.283,252.791 247.400 C 252.973 247.840,253.535 249.280,254.040 250.600 C 259.182 264.038,268.940 273.066,288.583 282.556 C 291.593 284.010,294.129 285.200,294.218 285.200 C 294.307 285.200,295.559 285.740,297.000 286.400 C 298.441 287.060,299.700 287.600,299.798 287.600 C 299.896 287.600,300.927 288.028,302.088 288.550 C 303.250 289.073,306.000 290.260,308.200 291.187 C 311.867 292.732,317.156 295.371,320.900 297.524 C 327.661 301.411,331.239 306.355,331.811 312.600 C 332.768 323.060,327.010 329.759,314.400 332.857 C 311.343 333.608,298.839 333.598,296.400 332.842 C 291.915 331.453,290.946 331.107,288.867 330.156 C 283.282 327.602,277.530 322.654,272.883 316.407 C 271.627 314.719,270.240 312.853,269.800 312.260 C 268.858 310.991,269.902 310.566,260.600 316.000 C 258.620 317.157,256.280 318.512,255.400 319.010 C 253.906 319.857,248.386 323.057,245.200 324.923 C 244.430 325.373,242.858 326.262,241.708 326.897 C 240.557 327.532,239.520 328.206,239.404 328.394 C 239.022 329.011,243.605 336.640,245.699 338.876 C 245.975 339.170,247.455 340.848,248.988 342.605 C 258.800 353.846,269.145 359.878,285.200 363.717 C 315.951 371.070,347.666 362.361,360.690 342.987 C 369.612 329.715,371.571 311.540,365.906 294.600 C 360.979 279.864,345.837 266.790,322.343 256.985 C 318.807 255.509,317.254 254.835,315.400 253.971 C 314.520 253.561,311.832 252.395,309.426 251.379 C 291.721 243.908,287.383 239.620,286.919 229.130 C 286.013 208.638,316.231 205.639,327.520 225.100 C 329.362 228.275,328.678 228.444,337.600 222.600 C 341.798 219.850,345.329 217.600,345.445 217.600 C 345.562 217.600,345.907 217.375,346.211 217.100 C 346.516 216.825,349.200 215.070,352.176 213.200 C 358.167 209.435,358.120 209.508,356.326 206.872 C 348.706 195.671,339.987 187.931,331.000 184.390 C 327.741 183.105,326.397 182.643,325.000 182.326 C 324.120 182.127,322.680 181.787,321.800 181.571 C 320.920 181.356,319.120 180.989,317.800 180.756 C 314.772 180.222,298.404 179.951,296.000 180.394 M181.043 183.033 C 180.909 183.381,180.797 213.126,180.793 249.133 C 180.785 321.222,180.848 319.280,178.381 324.296 C 176.453 328.217,173.553 330.654,168.357 332.717 C 165.665 333.786,158.054 333.660,153.482 332.471 C 148.418 331.154,140.394 322.970,137.119 315.781 C 136.583 314.605,135.512 314.525,134.062 315.552 C 132.854 316.408,124.915 321.303,122.800 322.495 C 122.030 322.930,121.220 323.430,121.000 323.606 C 120.573 323.949,112.647 328.806,110.534 330.021 C 105.837 332.720,105.887 332.615,107.744 335.902 C 112.411 344.157,117.525 350.078,124.760 355.600 C 130.518 359.995,140.259 363.815,150.400 365.655 C 154.393 366.380,170.349 366.392,174.200 365.674 C 179.558 364.673,181.019 364.328,184.118 363.328 C 204.554 356.735,216.210 340.029,217.836 315.000 C 218.143 310.268,218.040 183.770,217.728 182.957 C 217.384 182.060,181.388 182.134,181.043 183.033 " stroke="none" fill="#fbfbfb" fill-rule="evenodd"></path><path id="path1" d="M0.000 200.000 L 0.000 400.000 200.000 400.000 L 400.000 400.000 400.000 200.000 L 400.000 0.000 200.000 0.000 L 0.000 0.000 0.000 200.000 M315.400 179.568 C 316.940 179.781,319.190 180.152,320.400 180.394 C 321.610 180.636,323.187 180.936,323.904 181.061 C 324.621 181.186,325.306 181.449,325.427 181.644 C 325.548 181.840,326.177 182.000,326.824 182.000 C 327.471 182.000,328.000 182.180,328.000 182.400 C 328.000 182.620,328.362 182.800,328.805 182.800 C 329.248 182.800,329.923 182.957,330.305 183.150 C 333.280 184.648,334.553 185.200,335.038 185.200 C 335.347 185.200,335.600 185.359,335.600 185.553 C 335.600 185.748,335.915 186.013,336.300 186.142 C 339.935 187.367,349.687 195.955,353.030 200.878 C 353.674 201.825,354.515 202.949,354.900 203.375 C 355.285 203.802,355.600 204.304,355.600 204.492 C 355.600 204.680,355.960 205.220,356.400 205.692 C 356.840 206.164,357.200 206.787,357.200 207.075 C 357.200 207.364,357.350 207.600,357.532 207.600 C 357.715 207.600,358.105 208.048,358.398 208.596 C 358.924 209.580,358.153 211.200,357.158 211.200 C 356.983 211.200,356.066 211.712,355.120 212.339 C 354.174 212.965,352.775 213.820,352.012 214.239 C 351.249 214.657,350.270 215.315,349.837 215.700 C 349.403 216.085,348.896 216.400,348.708 216.400 C 348.520 216.400,347.980 216.760,347.508 217.200 C 347.036 217.640,346.413 218.000,346.125 218.000 C 345.836 218.000,345.600 218.158,345.600 218.351 C 345.600 218.545,345.060 218.927,344.400 219.200 C 343.740 219.473,343.200 219.855,343.200 220.049 C 343.200 220.242,342.996 220.400,342.748 220.400 C 342.499 220.400,341.464 220.995,340.448 221.723 C 339.431 222.450,337.791 223.485,336.802 224.023 C 335.813 224.560,334.655 225.315,334.227 225.700 C 333.799 226.085,333.228 226.400,332.958 226.400 C 332.688 226.400,332.407 226.542,332.333 226.714 C 332.106 227.250,329.708 228.800,329.107 228.800 C 328.793 228.800,328.115 227.900,327.600 226.800 C 327.085 225.700,326.514 224.800,326.332 224.800 C 326.149 224.800,326.000 224.622,326.000 224.405 C 326.000 223.054,317.897 215.600,316.428 215.600 C 316.193 215.600,316.000 215.464,316.000 215.297 C 316.000 214.933,313.475 214.090,310.200 213.362 C 301.762 211.486,292.012 215.049,289.253 221.017 C 288.953 221.668,288.548 222.513,288.353 222.895 C 288.159 223.277,288.000 224.042,288.000 224.595 C 288.000 225.148,287.820 225.600,287.600 225.600 C 287.375 225.600,287.200 226.725,287.200 228.176 C 287.200 229.593,287.380 230.864,287.600 231.000 C 287.820 231.136,288.000 231.946,288.000 232.800 C 288.000 233.654,288.180 234.464,288.400 234.600 C 288.620 234.736,288.800 235.287,288.800 235.824 C 288.800 236.361,288.968 236.800,289.173 236.800 C 289.378 236.800,289.661 237.162,289.801 237.603 C 290.073 238.461,294.654 243.200,295.211 243.200 C 295.394 243.200,295.786 243.425,296.084 243.700 C 296.868 244.425,298.574 245.385,302.200 247.142 C 305.254 248.621,306.149 249.027,309.800 250.590 C 310.680 250.967,312.092 251.618,312.938 252.037 C 313.784 252.457,314.729 252.800,315.038 252.800 C 315.347 252.800,315.600 252.980,315.600 253.200 C 315.600 253.420,315.872 253.600,316.205 253.600 C 316.538 253.600,317.168 253.780,317.605 254.000 C 318.042 254.220,318.758 254.580,319.195 254.800 C 319.632 255.020,320.262 255.200,320.595 255.200 C 320.928 255.200,321.200 255.341,321.200 255.513 C 321.200 255.685,322.010 256.065,323.000 256.357 C 323.990 256.649,324.800 257.048,324.800 257.244 C 324.800 257.440,325.078 257.600,325.418 257.600 C 326.172 257.600,333.746 261.228,333.933 261.679 C 334.007 261.855,334.412 262.000,334.833 262.000 C 335.255 262.000,335.600 262.138,335.600 262.306 C 335.600 262.474,336.296 262.913,337.147 263.282 C 337.999 263.650,338.944 264.188,339.247 264.476 C 339.551 264.764,340.340 265.270,341.000 265.600 C 341.660 265.930,342.549 266.515,342.975 266.900 C 343.402 267.285,343.896 267.600,344.074 267.600 C 344.359 267.600,347.072 269.438,349.389 271.200 C 356.106 276.308,363.047 285.286,366.089 292.800 C 366.311 293.350,366.652 294.113,366.847 294.495 C 367.041 294.877,367.200 295.631,367.200 296.171 C 367.200 296.711,367.380 297.264,367.600 297.400 C 367.820 297.536,368.000 298.256,368.000 299.000 C 368.000 299.744,368.180 300.464,368.400 300.600 C 368.620 300.736,368.800 301.726,368.800 302.800 C 368.800 303.874,368.980 304.864,369.200 305.000 C 369.448 305.153,369.600 308.730,369.600 314.400 C 369.600 320.070,369.448 323.647,369.200 323.800 C 368.980 323.936,368.800 324.836,368.800 325.800 C 368.800 326.764,368.620 327.664,368.400 327.800 C 368.180 327.936,368.000 328.476,368.000 329.000 C 368.000 329.524,367.820 330.064,367.600 330.200 C 367.380 330.336,367.200 330.876,367.200 331.400 C 367.200 331.924,367.020 332.464,366.800 332.600 C 366.580 332.736,366.400 333.287,366.400 333.824 C 366.400 334.361,366.220 334.800,366.000 334.800 C 365.780 334.800,365.600 335.160,365.600 335.600 C 365.600 336.040,365.420 336.400,365.200 336.400 C 364.980 336.400,364.800 336.677,364.800 337.016 C 364.800 339.734,357.282 349.315,352.001 353.328 C 350.790 354.247,349.740 355.135,349.667 355.300 C 349.593 355.465,349.278 355.600,348.967 355.600 C 348.655 355.600,348.400 355.780,348.400 356.000 C 348.400 356.220,348.145 356.400,347.833 356.400 C 347.522 356.400,347.207 356.535,347.133 356.700 C 346.956 357.098,345.213 358.094,341.800 359.748 C 337.006 362.071,336.946 362.093,329.372 364.422 C 328.696 364.630,327.672 364.800,327.095 364.800 C 326.519 364.800,325.936 364.980,325.800 365.200 C 325.664 365.420,324.663 365.600,323.576 365.600 C 322.489 365.600,321.600 365.780,321.600 366.000 C 321.600 366.227,320.427 366.400,318.880 366.400 C 317.384 366.400,315.973 366.587,315.744 366.816 C 314.959 367.601,293.093 366.812,292.220 365.968 C 292.011 365.765,290.987 365.600,289.944 365.600 C 288.901 365.600,287.936 365.420,287.800 365.200 C 287.664 364.980,286.991 364.800,286.305 364.800 C 285.618 364.800,284.504 364.628,283.828 364.418 C 283.153 364.209,280.980 363.547,279.000 362.949 C 275.377 361.854,273.099 360.972,270.262 359.563 C 269.416 359.144,268.486 358.800,268.196 358.800 C 267.905 358.800,267.607 358.665,267.533 358.500 C 267.413 358.230,265.311 357.022,262.903 355.840 C 262.410 355.598,262.005 355.265,262.003 355.100 C 262.001 354.935,261.812 354.800,261.583 354.800 C 261.110 354.800,257.700 352.325,255.600 350.458 C 254.830 349.773,254.080 349.210,253.934 349.206 C 253.709 349.201,247.768 342.586,245.368 339.666 C 244.945 339.153,244.269 338.343,243.865 337.866 C 243.460 337.390,242.837 336.505,242.479 335.900 C 242.120 335.295,241.686 334.800,241.514 334.800 C 241.341 334.800,241.200 334.628,241.200 334.418 C 241.200 334.207,240.651 333.104,239.980 331.965 C 238.376 329.245,238.078 327.790,239.061 327.481 C 240.025 327.179,242.163 325.884,242.333 325.500 C 242.407 325.335,242.722 325.200,243.033 325.200 C 243.345 325.200,243.600 325.020,243.600 324.800 C 243.600 324.580,243.960 324.400,244.400 324.400 C 244.840 324.400,245.200 324.241,245.200 324.047 C 245.200 323.852,245.515 323.593,245.900 323.471 C 246.585 323.254,248.804 321.996,249.200 321.600 C 249.310 321.490,249.803 321.175,250.295 320.900 C 250.787 320.625,252.677 319.567,254.495 318.549 C 256.313 317.531,258.520 316.316,259.400 315.849 C 260.280 315.382,261.060 314.865,261.133 314.700 C 261.207 314.535,261.522 314.400,261.833 314.400 C 262.145 314.400,262.400 314.254,262.400 314.075 C 262.400 313.896,263.030 313.502,263.800 313.200 C 264.570 312.898,265.200 312.504,265.200 312.325 C 265.200 312.146,265.425 311.996,265.700 311.991 C 265.975 311.986,266.650 311.630,267.200 311.200 C 268.679 310.043,269.422 310.219,270.674 312.021 C 278.008 322.581,284.892 328.380,293.000 330.828 C 293.880 331.093,294.960 331.452,295.400 331.625 C 297.357 332.394,299.005 332.544,305.200 332.514 C 312.241 332.480,316.000 332.148,316.000 331.561 C 316.000 331.363,316.452 331.200,317.005 331.200 C 317.558 331.200,318.323 331.036,318.705 330.835 C 319.087 330.634,320.435 329.991,321.700 329.405 C 325.834 327.493,330.428 322.203,330.406 319.380 C 330.403 318.929,330.594 318.366,330.831 318.129 C 331.283 317.677,331.140 312.011,330.620 309.800 C 329.853 306.539,326.951 302.647,323.600 300.384 C 322.830 299.864,322.110 299.340,322.000 299.219 C 321.647 298.832,319.423 297.558,318.700 297.329 C 318.315 297.207,318.000 296.948,318.000 296.753 C 318.000 296.559,317.730 296.400,317.400 296.400 C 317.070 296.400,316.800 296.220,316.800 296.000 C 316.800 295.780,316.440 295.600,316.000 295.600 C 315.560 295.600,315.200 295.420,315.200 295.200 C 315.200 294.980,314.943 294.800,314.629 294.800 C 314.315 294.800,312.650 294.163,310.929 293.383 C 309.208 292.604,307.440 291.813,307.000 291.624 C 305.395 290.937,303.165 289.985,301.700 289.363 C 300.875 289.012,299.508 288.382,298.662 287.963 C 297.816 287.543,296.871 287.200,296.562 287.200 C 296.253 287.200,296.000 287.020,296.000 286.800 C 296.000 286.580,295.651 286.400,295.224 286.400 C 294.797 286.400,294.336 286.220,294.200 286.000 C 294.064 285.780,293.603 285.600,293.176 285.600 C 292.749 285.600,292.400 285.420,292.400 285.200 C 292.400 284.980,292.164 284.800,291.875 284.800 C 291.365 284.800,290.761 284.529,284.400 281.446 C 281.208 279.900,277.930 278.071,277.600 277.653 C 277.490 277.514,276.995 277.175,276.500 276.900 C 276.005 276.625,275.195 276.175,274.700 275.900 C 274.205 275.625,273.710 275.304,273.600 275.186 C 273.490 275.069,272.140 274.087,270.600 273.004 C 267.736 270.989,265.079 268.696,263.236 266.648 C 262.666 266.015,261.688 264.943,261.062 264.266 C 259.591 262.674,257.600 259.777,257.600 259.228 C 257.600 258.993,257.463 258.800,257.296 258.800 C 257.026 258.800,256.125 257.130,253.551 251.862 C 253.138 251.016,252.800 249.981,252.800 249.562 C 252.800 249.143,252.620 248.800,252.400 248.800 C 252.180 248.800,252.000 248.260,252.000 247.600 C 252.000 246.940,251.840 246.400,251.644 246.400 C 251.448 246.400,251.185 245.815,251.060 245.100 C 250.936 244.385,250.636 242.810,250.395 241.600 C 248.862 233.910,249.138 218.422,250.841 216.620 C 251.038 216.411,251.200 215.824,251.200 215.315 C 251.200 214.806,251.359 214.077,251.553 213.695 C 251.961 212.893,252.776 210.962,253.197 209.800 C 253.356 209.360,253.899 208.190,254.403 207.200 C 254.907 206.210,255.517 204.996,255.760 204.503 C 256.002 204.010,256.335 203.605,256.500 203.603 C 256.665 203.601,256.805 203.375,256.811 203.100 C 256.827 202.366,261.029 196.963,263.418 194.603 C 267.022 191.045,271.599 187.703,274.700 186.365 C 275.415 186.057,276.000 185.669,276.000 185.502 C 276.000 185.336,276.360 185.200,276.800 185.200 C 277.240 185.200,277.600 185.020,277.600 184.800 C 277.600 184.580,277.949 184.400,278.376 184.400 C 278.803 184.400,279.264 184.220,279.400 184.000 C 279.536 183.780,279.997 183.600,280.424 183.600 C 280.851 183.600,281.200 183.420,281.200 183.200 C 281.200 182.980,281.614 182.800,282.120 182.800 C 282.626 182.800,283.211 182.651,283.420 182.470 C 283.629 182.288,284.610 181.907,285.600 181.624 C 286.590 181.341,287.760 180.959,288.200 180.775 C 288.640 180.592,289.810 180.355,290.800 180.248 C 297.552 179.522,299.250 179.283,299.508 179.021 C 299.877 178.648,311.672 179.053,315.400 179.568 M218.643 250.300 C 218.487 316.028,218.376 323.745,217.568 324.580 C 217.365 324.789,217.200 325.723,217.200 326.656 C 217.200 327.589,217.020 328.464,216.800 328.600 C 216.580 328.736,216.400 329.366,216.400 330.000 C 216.400 330.634,216.220 331.264,216.000 331.400 C 215.780 331.536,215.600 332.051,215.600 332.544 C 215.600 333.037,215.457 333.611,215.282 333.820 C 215.107 334.029,214.726 334.920,214.436 335.800 C 213.653 338.175,210.349 344.800,209.948 344.800 C 209.757 344.800,209.600 345.036,209.600 345.325 C 209.600 345.613,209.285 346.198,208.900 346.625 C 208.515 347.052,207.693 348.080,207.073 348.909 C 206.453 349.739,205.535 350.819,205.033 351.309 C 202.838 353.453,200.429 355.600,200.220 355.600 C 200.095 355.600,199.428 356.140,198.737 356.800 C 198.046 357.460,197.238 358.000,196.941 358.000 C 196.643 358.000,196.400 358.135,196.400 358.301 C 196.400 358.466,195.545 359.047,194.500 359.591 C 193.455 360.135,192.510 360.682,192.400 360.806 C 191.681 361.617,183.223 364.773,181.724 364.790 C 181.242 364.796,180.736 364.980,180.600 365.200 C 180.464 365.420,179.564 365.600,178.600 365.600 C 177.636 365.600,176.736 365.780,176.600 366.000 C 176.464 366.220,175.229 366.400,173.856 366.400 C 172.483 366.400,171.173 366.587,170.944 366.816 C 170.134 367.626,149.132 366.840,148.220 365.965 C 148.011 365.764,147.167 365.600,146.344 365.600 C 145.521 365.600,144.736 365.420,144.600 365.200 C 144.464 364.980,143.744 364.800,143.000 364.800 C 142.256 364.800,141.536 364.620,141.400 364.400 C 141.264 364.180,140.789 364.000,140.345 364.000 C 138.681 364.000,128.897 359.700,127.600 358.399 C 127.490 358.289,126.905 357.944,126.300 357.632 C 125.695 357.320,125.200 356.915,125.200 356.732 C 125.200 356.550,124.975 356.399,124.700 356.399 C 123.377 356.395,114.868 348.075,112.015 343.996 C 111.478 343.228,110.919 342.510,110.772 342.400 C 110.186 341.959,107.600 337.600,107.600 337.053 C 107.600 336.730,107.443 336.407,107.251 336.333 C 105.381 335.618,105.218 331.200,107.062 331.200 C 107.358 331.200,107.600 331.020,107.600 330.800 C 107.600 330.580,107.758 330.400,107.952 330.400 C 108.274 330.400,112.443 328.045,113.417 327.313 C 114.335 326.623,116.240 325.538,116.900 325.329 C 117.285 325.207,117.600 324.948,117.600 324.753 C 117.600 324.559,117.870 324.400,118.200 324.400 C 118.530 324.400,118.801 324.265,118.803 324.100 C 118.805 323.935,119.210 323.604,119.703 323.365 C 120.196 323.125,122.580 321.702,125.000 320.202 C 127.420 318.702,130.120 317.098,131.000 316.637 C 131.879 316.177,132.948 315.485,133.375 315.100 C 133.802 314.715,134.387 314.400,134.675 314.400 C 134.964 314.400,135.200 314.220,135.200 314.000 C 135.200 313.232,136.871 313.586,137.084 314.400 C 137.199 314.840,137.452 315.200,137.647 315.200 C 137.841 315.200,138.000 315.386,138.000 315.613 C 138.000 318.554,149.763 331.200,152.498 331.200 C 152.796 331.200,153.211 331.362,153.420 331.559 C 154.312 332.402,165.004 333.156,165.732 332.428 C 165.968 332.192,166.585 332.000,167.105 332.000 C 168.576 332.000,173.017 329.686,174.690 328.047 C 179.813 323.030,180.222 319.860,180.041 286.600 C 179.970 273.620,180.044 244.775,180.205 222.500 L 180.498 182.000 199.651 182.000 L 218.805 182.000 218.643 250.300 " stroke="none" fill="#d4d4ec" fill-rule="evenodd"></path><path id="path2" d="M302.700 179.496 C 304.075 179.574,306.325 179.574,307.700 179.496 C 309.075 179.418,307.950 179.354,305.200 179.354 C 302.450 179.354,301.325 179.418,302.700 179.496 M311.105 179.883 C 311.602 179.979,312.322 179.975,312.705 179.875 C 313.087 179.775,312.680 179.696,311.800 179.701 C 310.920 179.705,310.607 179.787,311.105 179.883 M180.595 248.000 C 180.595 283.530,180.642 298.065,180.700 280.300 C 180.758 262.535,180.758 233.465,180.700 215.700 C 180.642 197.935,180.595 212.470,180.595 248.000 M265.381 193.300 L 263.800 195.000 265.500 193.419 C 267.081 191.948,267.384 191.600,267.081 191.600 C 267.016 191.600,266.251 192.365,265.381 193.300 M261.978 196.700 L 260.600 198.200 262.100 196.822 C 263.496 195.538,263.784 195.200,263.478 195.200 C 263.412 195.200,262.737 195.875,261.978 196.700 M351.400 214.000 C 350.740 214.437,350.380 214.792,350.600 214.788 C 351.001 214.782,353.176 213.223,352.800 213.212 C 352.690 213.208,352.060 213.563,351.400 214.000 M317.200 215.564 C 317.750 216.014,318.380 216.383,318.600 216.385 C 319.028 216.388,318.305 215.834,317.000 215.160 C 316.469 214.885,316.536 215.021,317.200 215.564 M291.178 217.500 L 289.800 219.000 291.396 217.600 C 292.273 216.830,293.068 216.155,293.162 216.100 C 293.256 216.045,293.159 216.000,292.945 216.000 C 292.732 216.000,291.937 216.675,291.178 217.500 M322.800 219.800 C 323.546 220.570,324.247 221.200,324.357 221.200 C 324.467 221.200,323.946 220.570,323.200 219.800 C 322.454 219.030,321.753 218.400,321.643 218.400 C 321.533 218.400,322.054 219.030,322.800 219.800 M249.748 230.000 C 249.748 232.310,249.814 233.255,249.895 232.100 C 249.976 230.945,249.976 229.055,249.895 227.900 C 249.814 226.745,249.748 227.690,249.748 230.000 M286.924 228.200 C 286.926 229.520,287.001 230.012,287.090 229.293 C 287.179 228.574,287.177 227.494,287.086 226.893 C 286.995 226.292,286.922 226.880,286.924 228.200 M218.584 246.600 C 218.584 256.720,218.636 260.803,218.700 255.673 C 218.763 250.542,218.763 242.262,218.700 237.273 C 218.636 232.283,218.584 236.480,218.584 246.600 M291.600 241.000 C 292.346 241.770,293.047 242.400,293.157 242.400 C 293.267 242.400,292.746 241.770,292.000 241.000 C 291.254 240.230,290.553 239.600,290.443 239.600 C 290.333 239.600,290.854 240.230,291.600 241.000 M264.200 267.200 C 265.728 268.740,267.069 270.000,267.179 270.000 C 267.289 270.000,266.128 268.740,264.600 267.200 C 263.072 265.660,261.731 264.400,261.621 264.400 C 261.511 264.400,262.672 265.660,264.200 267.200 M340.000 265.620 C 341.387 266.561,342.178 266.835,341.200 266.036 C 340.650 265.586,340.020 265.217,339.800 265.215 C 339.580 265.213,339.670 265.396,340.000 265.620 M354.600 276.800 C 356.350 278.560,357.871 280.000,357.981 280.000 C 358.091 280.000,356.750 278.560,355.000 276.800 C 353.250 275.040,351.729 273.600,351.619 273.600 C 351.509 273.600,352.850 275.040,354.600 276.800 M218.575 301.200 C 218.575 307.030,218.631 309.415,218.699 306.500 C 218.767 303.585,218.767 298.815,218.699 295.900 C 218.631 292.985,218.575 295.370,218.575 301.200 M326.800 302.600 C 327.546 303.370,328.247 304.000,328.357 304.000 C 328.467 304.000,327.946 303.370,327.200 302.600 C 326.454 301.830,325.753 301.200,325.643 301.200 C 325.533 301.200,326.054 301.830,326.800 302.600 M369.350 314.600 C 369.351 317.020,369.416 317.958,369.496 316.685 C 369.576 315.412,369.575 313.432,369.494 312.285 C 369.414 311.138,369.349 312.180,369.350 314.600 M180.093 314.400 C 180.093 315.170,180.175 315.485,180.276 315.100 C 180.376 314.715,180.376 314.085,180.276 313.700 C 180.175 313.315,180.093 313.630,180.093 314.400 M218.109 315.600 C 218.109 316.590,218.187 316.995,218.282 316.500 C 218.378 316.005,218.378 315.195,218.282 314.700 C 218.187 314.205,218.109 314.610,218.109 315.600 M259.600 316.036 C 258.936 316.579,258.869 316.715,259.400 316.440 C 260.705 315.766,261.428 315.212,261.000 315.215 C 260.780 315.217,260.150 315.586,259.600 316.036 M179.450 319.650 C 179.117 321.317,179.440 321.640,179.800 320.000 C 179.952 319.309,179.993 318.659,179.891 318.558 C 179.789 318.456,179.591 318.947,179.450 319.650 M217.693 320.000 C 217.693 320.770,217.775 321.085,217.876 320.700 C 217.976 320.315,217.976 319.685,217.876 319.300 C 217.775 318.915,217.693 319.230,217.693 320.000 M277.800 322.000 C 278.659 322.880,279.452 323.600,279.562 323.600 C 279.672 323.600,279.059 322.880,278.200 322.000 C 277.341 321.120,276.548 320.400,276.438 320.400 C 276.328 320.400,276.941 321.120,277.800 322.000 M175.234 328.153 L 174.269 329.400 175.413 328.312 C 176.043 327.714,176.477 327.153,176.379 327.065 C 176.280 326.977,175.765 327.467,175.234 328.153 M240.600 332.400 C 240.941 333.060,241.311 333.600,241.421 333.600 C 241.531 333.600,241.341 333.060,241.000 332.400 C 240.659 331.740,240.289 331.200,240.179 331.200 C 240.069 331.200,240.259 331.740,240.600 332.400 M157.900 333.082 C 158.395 333.178,159.205 333.178,159.700 333.082 C 160.195 332.987,159.790 332.909,158.800 332.909 C 157.810 332.909,157.405 332.987,157.900 333.082 M163.500 333.082 C 163.995 333.178,164.805 333.178,165.300 333.082 C 165.795 332.987,165.390 332.909,164.400 332.909 C 163.410 332.909,163.005 332.987,163.500 333.082 M299.100 333.082 C 299.595 333.178,300.405 333.178,300.900 333.082 C 301.395 332.987,300.990 332.909,300.000 332.909 C 299.010 332.909,298.605 332.987,299.100 333.082 M309.500 333.082 C 309.995 333.178,310.805 333.178,311.300 333.082 C 311.795 332.987,311.390 332.909,310.400 332.909 C 309.410 332.909,309.005 332.987,309.500 333.082 M114.800 347.000 C 115.546 347.770,116.247 348.400,116.357 348.400 C 116.467 348.400,115.946 347.770,115.200 347.000 C 114.454 346.230,113.753 345.600,113.643 345.600 C 113.533 345.600,114.054 346.230,114.800 347.000 M356.378 348.700 L 355.000 350.200 356.500 348.822 C 357.896 347.538,358.184 347.200,357.878 347.200 C 357.812 347.200,357.137 347.875,356.378 348.700 M203.787 351.700 L 201.400 354.200 203.900 351.813 C 205.275 350.499,206.400 349.374,206.400 349.313 C 206.400 349.017,206.005 349.378,203.787 351.700 M195.700 358.046 C 194.337 358.919,193.895 359.506,195.100 358.843 C 196.018 358.339,197.456 357.227,197.200 357.219 C 197.090 357.216,196.415 357.588,195.700 358.046 M145.600 365.182 C 145.930 365.405,146.545 365.591,146.967 365.594 C 147.990 365.602,147.671 365.373,146.200 365.044 C 145.324 364.848,145.162 364.885,145.600 365.182 M178.000 365.200 C 177.176 365.464,177.141 365.526,177.800 365.554 C 178.240 365.573,178.870 365.413,179.200 365.200 C 179.901 364.747,179.414 364.747,178.000 365.200 M289.200 365.194 C 289.530 365.411,290.235 365.591,290.767 365.594 C 292.051 365.602,291.725 365.375,290.000 365.058 C 289.015 364.877,288.778 364.918,289.200 365.194 M323.200 365.200 C 322.376 365.464,322.341 365.526,323.000 365.554 C 323.440 365.573,324.070 365.413,324.400 365.200 C 325.101 364.747,324.614 364.747,323.200 365.200 M173.400 366.000 C 172.311 366.277,172.293 366.307,173.200 366.325 C 173.750 366.335,174.560 366.189,175.000 366.000 C 175.986 365.576,175.066 365.576,173.400 366.000 M293.800 365.997 C 294.564 366.328,297.514 366.555,297.167 366.256 C 297.075 366.177,296.100 366.009,295.000 365.882 C 293.713 365.733,293.285 365.774,293.800 365.997 M317.300 366.276 C 317.685 366.376,318.315 366.376,318.700 366.276 C 319.085 366.175,318.770 366.093,318.000 366.093 C 317.230 366.093,316.915 366.175,317.300 366.276 M155.300 366.676 C 155.685 366.776,156.315 366.776,156.700 366.676 C 157.085 366.575,156.770 366.493,156.000 366.493 C 155.230 366.493,154.915 366.575,155.300 366.676 M167.700 366.676 C 168.085 366.776,168.715 366.776,169.100 366.676 C 169.485 366.575,169.170 366.493,168.400 366.493 C 167.630 366.493,167.315 366.575,167.700 366.676 M300.705 366.683 C 301.202 366.779,301.922 366.775,302.305 366.675 C 302.687 366.575,302.280 366.496,301.400 366.501 C 300.520 366.505,300.207 366.587,300.705 366.683 M311.700 366.676 C 312.085 366.776,312.715 366.776,313.100 366.676 C 313.485 366.575,313.170 366.493,312.400 366.493 C 311.630 366.493,311.315 366.575,311.700 366.676 M160.100 367.094 C 161.145 367.176,162.855 367.176,163.900 367.094 C 164.945 367.012,164.090 366.944,162.000 366.944 C 159.910 366.944,159.055 367.012,160.100 367.094 " stroke="none" fill="#e4e4f4" fill-rule="evenodd"></path><path id="path3" d="M302.500 179.897 C 303.985 179.974,306.415 179.974,307.900 179.897 C 309.385 179.820,308.170 179.757,305.200 179.757 C 302.230 179.757,301.015 179.820,302.500 179.897 M294.600 180.400 C 293.530 180.672,293.508 180.705,294.400 180.705 C 294.950 180.705,295.940 180.568,296.600 180.400 C 297.670 180.128,297.692 180.095,296.800 180.095 C 296.250 180.095,295.260 180.232,294.600 180.400 M315.000 180.400 C 315.660 180.568,316.650 180.705,317.200 180.705 C 318.092 180.705,318.070 180.672,317.000 180.400 C 316.340 180.232,315.350 180.095,314.800 180.095 C 313.908 180.095,313.930 180.128,315.000 180.400 M320.200 181.200 C 320.640 181.389,321.270 181.544,321.600 181.544 C 321.978 181.544,321.904 181.417,321.400 181.200 C 320.960 181.011,320.330 180.856,320.000 180.856 C 319.622 180.856,319.696 180.983,320.200 181.200 M217.901 224.138 C 217.956 247.052,218.048 273.090,218.105 282.000 C 218.162 290.910,218.249 272.370,218.298 240.800 C 218.348 209.230,218.256 183.192,218.094 182.938 C 217.932 182.684,217.845 201.224,217.901 224.138 M332.800 184.984 C 332.800 185.094,333.520 185.551,334.400 186.000 C 335.280 186.449,336.000 186.726,336.000 186.616 C 336.000 186.506,335.280 186.049,334.400 185.600 C 333.520 185.151,332.800 184.874,332.800 184.984 M337.400 187.472 C 337.620 187.685,338.790 188.528,340.000 189.346 C 341.590 190.421,341.848 190.524,340.930 189.717 C 339.745 188.674,336.522 186.625,337.400 187.472 M270.524 189.391 C 269.388 190.156,268.336 190.979,268.187 191.220 C 267.954 191.598,271.503 189.262,272.580 188.329 C 273.447 187.578,272.456 188.090,270.524 189.391 M345.200 193.325 C 345.200 193.394,345.785 193.979,346.500 194.625 L 347.800 195.800 346.625 194.500 C 345.530 193.288,345.200 193.016,345.200 193.325 M352.575 201.732 C 353.191 202.539,353.776 203.200,353.875 203.200 C 354.153 203.200,352.421 200.860,351.909 200.544 C 351.659 200.389,351.959 200.924,352.575 201.732 M353.300 212.446 C 351.937 213.319,351.495 213.906,352.700 213.243 C 353.618 212.739,355.056 211.627,354.800 211.619 C 354.690 211.616,354.015 211.988,353.300 212.446 M303.891 212.289 C 304.601 212.377,305.861 212.379,306.691 212.292 C 307.521 212.205,306.940 212.133,305.400 212.131 C 303.860 212.129,303.181 212.200,303.891 212.289 M299.000 212.800 C 298.496 213.017,298.422 213.144,298.800 213.144 C 299.130 213.144,299.760 212.989,300.200 212.800 C 300.704 212.583,300.778 212.456,300.400 212.456 C 300.070 212.456,299.440 212.611,299.000 212.800 M290.975 217.300 L 289.800 218.600 291.100 217.425 C 291.815 216.779,292.400 216.194,292.400 216.125 C 292.400 215.816,292.070 216.088,290.975 217.300 M251.050 218.050 C 250.909 218.753,250.869 219.402,250.959 219.492 C 251.050 219.583,251.248 219.091,251.400 218.400 C 251.552 217.709,251.593 217.059,251.491 216.958 C 251.389 216.856,251.191 217.347,251.050 218.050 M250.240 222.440 C 250.093 223.357,250.052 224.185,250.147 224.280 C 250.242 224.376,250.446 223.710,250.600 222.800 C 250.754 221.890,250.796 221.062,250.693 220.960 C 250.590 220.857,250.387 221.523,250.240 222.440 M325.788 223.000 C 327.677 225.517,327.921 225.741,326.962 224.076 C 326.543 223.348,325.770 222.358,325.244 221.876 C 324.681 221.360,324.905 221.822,325.788 223.000 M336.500 223.246 C 335.137 224.119,334.695 224.706,335.900 224.043 C 336.818 223.539,338.256 222.427,338.000 222.419 C 337.890 222.416,337.215 222.788,336.500 223.246 M328.392 227.100 C 328.632 227.595,329.137 227.986,329.514 227.968 C 330.070 227.943,330.086 227.893,329.600 227.704 C 329.270 227.575,328.765 227.184,328.478 226.835 C 328.035 226.296,328.022 226.337,328.392 227.100 M286.806 231.433 C 286.809 232.075,286.984 232.870,287.195 233.200 C 287.455 233.609,287.499 233.290,287.332 232.200 C 287.029 230.223,286.798 229.886,286.806 231.433 M341.200 266.518 C 341.200 266.608,342.460 267.520,344.000 268.545 C 345.540 269.569,346.800 270.322,346.800 270.218 C 346.800 270.115,345.765 269.334,344.500 268.485 C 341.699 266.602,341.200 266.305,341.200 266.518 M273.069 274.032 C 273.566 274.633,276.000 276.164,276.000 275.876 C 276.000 275.783,275.235 275.202,274.300 274.585 C 273.365 273.968,272.811 273.720,273.069 274.032 M356.000 278.525 C 356.000 278.594,356.585 279.179,357.300 279.825 L 358.600 281.000 357.425 279.700 C 356.330 278.488,356.000 278.216,356.000 278.525 M289.200 283.200 C 289.970 283.622,290.780 283.966,291.000 283.966 C 291.220 283.966,290.770 283.622,290.000 283.200 C 289.230 282.778,288.420 282.434,288.200 282.434 C 287.980 282.434,288.430 282.778,289.200 283.200 M312.000 293.200 C 312.770 293.622,313.580 293.966,313.800 293.966 C 314.020 293.966,313.570 293.622,312.800 293.200 C 312.030 292.778,311.220 292.434,311.000 292.434 C 310.780 292.434,311.230 292.778,312.000 293.200 M320.833 297.716 C 320.925 297.780,321.720 298.333,322.600 298.945 L 324.200 300.058 322.815 298.829 C 322.053 298.153,321.258 297.600,321.048 297.600 C 320.838 297.600,320.742 297.652,320.833 297.716 M367.668 301.400 C 367.662 301.840,367.811 302.560,368.000 303.000 C 368.438 304.019,368.438 302.968,368.000 301.600 C 367.743 300.796,367.677 300.757,367.668 301.400 M368.493 306.400 C 368.493 307.170,368.575 307.485,368.676 307.100 C 368.776 306.715,368.776 306.085,368.676 305.700 C 368.575 305.315,368.493 305.630,368.493 306.400 M368.893 309.200 C 368.893 309.970,368.975 310.285,369.076 309.900 C 369.176 309.515,369.176 308.885,369.076 308.500 C 368.975 308.115,368.893 308.430,368.893 309.200 M218.128 311.600 C 218.128 313.030,218.201 313.615,218.289 312.900 C 218.378 312.185,218.378 311.015,218.289 310.300 C 218.201 309.585,218.128 310.170,218.128 311.600 M180.240 315.040 C 180.090 316.503,180.049 317.782,180.148 317.882 C 180.248 317.981,180.457 316.871,180.613 315.413 C 180.769 313.956,180.811 312.677,180.705 312.572 C 180.599 312.466,180.390 313.577,180.240 315.040 M331.724 314.600 C 331.726 315.920,331.801 316.412,331.890 315.693 C 331.979 314.974,331.977 313.894,331.886 313.293 C 331.795 312.692,331.722 313.280,331.724 314.600 M217.724 316.600 C 217.726 317.920,217.801 318.412,217.890 317.693 C 217.979 316.974,217.977 315.894,217.886 315.293 C 217.795 314.692,217.722 315.280,217.724 316.600 M256.600 318.000 C 255.940 318.437,255.580 318.792,255.800 318.788 C 256.201 318.782,258.376 317.223,258.000 317.212 C 257.890 317.208,257.260 317.563,256.600 318.000 M246.200 324.000 C 245.540 324.437,245.180 324.792,245.400 324.788 C 245.801 324.782,247.976 323.223,247.600 323.212 C 247.490 323.208,246.860 323.563,246.200 324.000 M118.500 324.846 C 117.137 325.719,116.695 326.306,117.900 325.643 C 118.818 325.139,120.256 324.027,120.000 324.019 C 119.890 324.016,119.215 324.388,118.500 324.846 M280.764 324.935 C 281.349 325.663,283.600 327.377,283.600 327.094 C 283.600 327.006,282.835 326.326,281.900 325.583 C 280.965 324.840,280.454 324.548,280.764 324.935 M243.096 325.750 C 241.175 326.931,240.638 327.489,242.200 326.681 C 243.454 326.033,245.145 324.826,244.800 324.825 C 244.690 324.825,243.923 325.241,243.096 325.750 M326.800 326.600 C 325.828 327.590,325.123 328.400,325.233 328.400 C 325.343 328.400,326.228 327.590,327.200 326.600 C 328.172 325.610,328.877 324.800,328.767 324.800 C 328.657 324.800,327.772 325.610,326.800 326.600 M367.849 325.815 C 367.712 326.173,367.615 326.766,367.634 327.133 C 367.653 327.500,367.827 327.269,368.021 326.620 C 368.398 325.358,368.265 324.733,367.849 325.815 M146.800 328.546 C 146.800 328.656,147.340 329.130,148.000 329.600 C 148.660 330.070,149.200 330.364,149.200 330.254 C 149.200 330.144,148.660 329.670,148.000 329.200 C 147.340 328.730,146.800 328.436,146.800 328.546 M286.000 328.579 C 286.000 328.689,286.540 329.059,287.200 329.400 C 287.860 329.741,288.400 329.931,288.400 329.821 C 288.400 329.711,287.860 329.341,287.200 329.000 C 286.540 328.659,286.000 328.469,286.000 328.579 M154.800 332.794 C 155.130 333.011,155.835 333.191,156.367 333.194 C 157.651 333.202,157.325 332.975,155.600 332.658 C 154.615 332.477,154.378 332.518,154.800 332.794 M166.800 332.800 C 165.976 333.064,165.941 333.126,166.600 333.154 C 167.040 333.173,167.670 333.013,168.000 332.800 C 168.701 332.347,168.214 332.347,166.800 332.800 M296.400 332.782 C 296.730 333.005,297.345 333.191,297.767 333.194 C 298.790 333.202,298.471 332.973,297.000 332.644 C 296.124 332.448,295.962 332.485,296.400 332.782 M159.891 333.489 C 160.601 333.577,161.861 333.579,162.691 333.492 C 163.521 333.405,162.940 333.333,161.400 333.331 C 159.860 333.329,159.181 333.400,159.891 333.489 M301.705 333.487 C 302.314 333.579,303.214 333.577,303.705 333.482 C 304.197 333.387,303.700 333.311,302.600 333.314 C 301.500 333.317,301.097 333.395,301.705 333.487 M306.900 333.487 C 307.505 333.578,308.495 333.578,309.100 333.487 C 309.705 333.395,309.210 333.320,308.000 333.320 C 306.790 333.320,306.295 333.395,306.900 333.487 M246.000 339.455 C 246.000 339.668,246.675 340.463,247.500 341.222 L 249.000 342.600 247.600 341.004 C 246.830 340.127,246.155 339.332,246.100 339.238 C 246.045 339.144,246.000 339.241,246.000 339.455 M250.000 344.200 C 250.746 344.970,251.447 345.600,251.557 345.600 C 251.667 345.600,251.146 344.970,250.400 344.200 C 249.654 343.430,248.953 342.800,248.843 342.800 C 248.733 342.800,249.254 343.430,250.000 344.200 M113.375 344.932 C 113.991 345.739,114.576 346.400,114.675 346.400 C 114.953 346.400,113.221 344.060,112.709 343.744 C 112.459 343.589,112.759 344.124,113.375 344.932 M207.600 346.800 C 207.130 347.460,206.836 348.000,206.946 348.000 C 207.056 348.000,207.530 347.460,208.000 346.800 C 208.470 346.140,208.764 345.600,208.654 345.600 C 208.544 345.600,208.070 346.140,207.600 346.800 M355.389 349.300 L 352.600 352.200 355.500 349.411 C 358.194 346.820,358.583 346.400,358.289 346.400 C 358.228 346.400,356.923 347.705,355.389 349.300 M117.800 350.000 C 118.659 350.880,119.452 351.600,119.562 351.600 C 119.672 351.600,119.059 350.880,118.200 350.000 C 117.341 349.120,116.548 348.400,116.438 348.400 C 116.328 348.400,116.941 349.120,117.800 350.000 M203.787 351.222 C 202.474 352.553,200.410 354.389,199.200 355.300 C 196.303 357.483,195.914 357.874,197.552 356.957 C 198.824 356.245,206.846 348.854,206.387 348.817 C 206.271 348.808,205.101 349.890,203.787 351.222 M261.000 353.807 C 261.440 354.166,262.160 354.635,262.600 354.851 L 263.400 355.244 262.600 354.593 C 262.160 354.234,261.440 353.765,261.000 353.549 L 260.200 353.156 261.000 353.807 M348.287 354.968 C 345.926 356.602,345.364 357.175,347.106 356.172 C 348.450 355.399,350.756 353.623,350.400 353.636 C 350.290 353.641,349.339 354.240,348.287 354.968 M320.500 365.476 C 320.885 365.576,321.515 365.576,321.900 365.476 C 322.285 365.375,321.970 365.293,321.200 365.293 C 320.430 365.293,320.115 365.375,320.500 365.476 M153.100 366.282 C 153.595 366.378,154.405 366.378,154.900 366.282 C 155.395 366.187,154.990 366.109,154.000 366.109 C 153.010 366.109,152.605 366.187,153.100 366.282 M169.705 366.287 C 170.314 366.379,171.214 366.377,171.705 366.282 C 172.197 366.187,171.700 366.111,170.600 366.114 C 169.500 366.117,169.097 366.195,169.705 366.287 M298.100 366.287 C 298.705 366.378,299.695 366.378,300.300 366.287 C 300.905 366.195,300.410 366.120,299.200 366.120 C 297.990 366.120,297.495 366.195,298.100 366.287 M313.700 366.287 C 314.305 366.378,315.295 366.378,315.900 366.287 C 316.505 366.195,316.010 366.120,314.800 366.120 C 313.590 366.120,313.095 366.195,313.700 366.287 M159.717 366.697 C 161.211 366.774,163.551 366.774,164.917 366.696 C 166.282 366.618,165.060 366.555,162.200 366.555 C 159.340 366.556,158.222 366.620,159.717 366.697 M304.915 366.696 C 306.188 366.776,308.168 366.775,309.315 366.694 C 310.462 366.614,309.420 366.549,307.000 366.550 C 304.580 366.551,303.642 366.616,304.915 366.696 " stroke="none" fill="#ece4f4" fill-rule="evenodd"></path><path id="path4" d="M299.000 179.179 C 298.560 179.380,297.210 179.569,296.000 179.600 C 294.790 179.631,293.440 179.812,293.000 180.002 C 292.032 180.421,296.506 180.116,299.320 179.571 C 301.779 179.096,307.908 179.095,311.671 179.570 C 316.903 180.230,318.914 180.381,318.623 180.089 C 317.855 179.322,300.458 178.515,299.000 179.179 M288.224 180.762 C 288.096 180.968,288.730 181.031,289.700 180.907 C 291.952 180.619,292.121 180.400,290.090 180.400 C 289.187 180.400,288.347 180.563,288.224 180.762 M319.233 180.544 C 319.325 180.624,320.210 180.806,321.200 180.950 C 322.458 181.133,322.819 181.091,322.400 180.812 C 321.860 180.453,318.832 180.197,319.233 180.544 M285.400 181.594 C 284.960 181.780,284.259 182.042,283.843 182.176 C 283.426 182.310,283.171 182.504,283.275 182.608 C 283.379 182.712,284.440 182.451,285.632 182.028 C 286.824 181.605,287.440 181.257,287.000 181.256 C 286.560 181.255,285.840 181.407,285.400 181.594 M324.200 181.600 C 325.301 182.073,325.692 182.073,325.400 181.600 C 325.264 181.380,324.758 181.213,324.276 181.228 C 323.431 181.255,323.429 181.269,324.200 181.600 M180.446 182.900 C 180.481 183.577,180.538 183.627,180.676 183.100 C 180.847 182.446,182.089 182.400,199.626 182.400 L 218.394 182.400 218.500 205.500 L 218.607 228.600 218.703 205.300 L 218.800 182.000 199.600 182.000 L 180.400 182.000 180.446 182.900 M269.995 189.075 C 267.765 190.574,266.543 191.600,266.989 191.600 C 267.124 191.600,268.188 190.880,269.354 190.000 C 270.519 189.120,271.681 188.400,271.936 188.400 C 272.191 188.400,272.400 188.220,272.400 188.000 C 272.400 187.448,272.448 187.426,269.995 189.075 M338.833 187.760 C 338.925 187.848,339.925 188.613,341.055 189.460 C 344.498 192.041,349.769 197.246,352.941 201.200 C 353.559 201.970,353.884 202.232,353.663 201.783 C 352.971 200.377,347.445 194.292,344.967 192.209 C 343.665 191.114,342.510 190.123,342.400 190.007 C 341.888 189.466,339.221 187.600,338.960 187.600 C 338.799 187.600,338.742 187.672,338.833 187.760 M264.371 193.708 C 263.365 194.639,262.201 195.850,261.785 196.400 C 261.369 196.950,262.237 196.235,263.714 194.812 C 266.164 192.450,266.594 191.984,266.300 192.008 C 266.245 192.013,265.377 192.778,264.371 193.708 M258.642 200.243 C 257.565 201.659,256.774 202.907,256.883 203.017 C 256.993 203.126,257.582 202.448,258.193 201.508 C 258.803 200.569,259.670 199.396,260.119 198.902 C 260.569 198.407,260.861 197.928,260.768 197.837 C 260.676 197.745,259.719 198.828,258.642 200.243 M354.645 203.812 C 355.010 204.369,355.386 204.747,355.482 204.651 C 355.719 204.414,354.684 202.800,354.295 202.800 C 354.122 202.800,354.280 203.256,354.645 203.812 M356.245 206.212 C 356.610 206.769,356.986 207.147,357.082 207.051 C 357.319 206.814,356.284 205.200,355.895 205.200 C 355.722 205.200,355.880 205.656,356.245 206.212 M357.751 208.100 C 357.888 208.485,358.089 209.025,358.198 209.300 C 358.314 209.595,357.167 210.598,355.398 211.748 C 353.749 212.820,352.400 213.776,352.400 213.872 C 352.400 214.068,352.703 213.900,355.000 212.436 C 355.880 211.875,356.942 211.233,357.361 211.008 C 358.718 210.280,358.997 209.411,358.213 208.357 C 357.790 207.787,357.602 207.683,357.751 208.100 M252.180 212.243 C 252.049 212.659,251.775 213.313,251.571 213.695 C 251.367 214.077,251.206 214.797,251.214 215.295 C 251.223 215.828,251.550 215.307,252.010 214.029 C 252.439 212.834,252.707 211.774,252.605 211.671 C 252.502 211.569,252.311 211.826,252.180 212.243 M300.800 212.797 C 300.250 212.980,299.284 213.245,298.653 213.384 C 298.022 213.524,297.591 213.724,297.695 213.828 C 297.799 213.932,299.035 213.746,300.442 213.415 C 303.610 212.668,307.005 212.658,310.396 213.385 C 311.824 213.691,313.060 213.873,313.143 213.790 C 313.226 213.707,312.778 213.523,312.147 213.381 C 311.516 213.239,310.370 212.961,309.600 212.763 C 307.876 212.321,302.160 212.343,300.800 212.797 M294.100 215.288 C 293.605 215.527,293.200 215.879,293.200 216.070 C 293.200 216.262,293.650 216.124,294.200 215.763 C 295.667 214.802,295.616 214.557,294.100 215.288 M349.194 215.618 C 348.647 216.039,348.380 216.380,348.600 216.378 C 349.129 216.373,350.591 215.258,350.365 215.031 C 350.268 214.934,349.741 215.198,349.194 215.618 M250.667 216.667 C 250.520 216.813,250.418 217.578,250.440 218.367 L 250.480 219.800 250.846 218.240 C 251.215 216.668,251.159 216.175,250.667 216.667 M291.128 217.900 C 290.340 218.725,289.483 219.850,289.225 220.400 C 288.777 221.355,288.784 221.364,289.386 220.600 C 290.631 219.018,291.322 218.185,292.124 217.300 C 293.483 215.800,292.664 216.294,291.128 217.900 M320.025 217.900 C 320.998 218.725,322.303 219.913,322.923 220.541 C 323.544 221.168,324.139 221.595,324.244 221.489 C 324.487 221.246,319.144 216.400,318.634 216.400 C 318.426 216.400,319.052 217.075,320.025 217.900 M346.794 217.218 C 346.247 217.639,345.980 217.980,346.200 217.978 C 346.729 217.973,348.191 216.858,347.965 216.631 C 347.868 216.534,347.341 216.798,346.794 217.218 M344.400 218.820 L 343.400 219.622 344.500 219.147 C 345.105 218.885,345.600 218.520,345.600 218.336 C 345.600 217.879,345.545 217.902,344.400 218.820 M340.196 221.452 C 338.658 222.471,337.220 223.483,337.000 223.701 C 336.313 224.382,338.458 223.157,340.421 221.747 C 341.452 221.006,342.499 220.400,342.748 220.400 C 342.996 220.400,343.200 220.220,343.200 220.000 C 343.200 219.444,343.300 219.396,340.196 221.452 M249.963 220.033 C 248.996 224.417,249.140 238.917,250.160 239.870 C 250.361 240.058,250.411 239.770,250.278 239.200 C 249.767 237.028,249.555 227.983,249.925 224.200 C 250.140 222.000,250.245 220.125,250.158 220.033 C 250.071 219.942,249.983 219.942,249.963 220.033 M180.191 256.600 C 180.191 275.520,180.240 283.201,180.300 273.670 C 180.360 264.138,180.360 248.658,180.300 239.270 C 180.240 229.881,180.191 237.680,180.191 256.600 M287.508 224.383 C 287.231 225.367,287.397 225.937,287.832 225.501 C 287.960 225.373,288.001 224.848,287.924 224.334 L 287.784 223.400 287.508 224.383 M327.685 227.000 C 328.166 227.990,328.796 228.800,329.085 228.800 C 329.744 228.800,332.388 227.110,332.395 226.686 C 332.398 226.513,331.728 226.828,330.907 227.386 C 328.984 228.692,328.963 228.688,328.000 226.800 C 326.877 224.599,326.603 224.773,327.685 227.000 M333.376 225.787 C 332.949 226.110,332.780 226.375,333.000 226.375 C 333.220 226.375,333.749 226.110,334.176 225.787 C 334.604 225.464,334.773 225.200,334.553 225.200 C 334.333 225.200,333.804 225.464,333.376 225.787 M287.240 231.276 C 287.359 232.846,287.920 233.816,287.960 232.524 C 287.982 231.822,287.820 231.136,287.600 231.000 C 287.380 230.864,287.218 230.988,287.240 231.276 M288.006 234.876 C 288.018 235.881,288.787 236.708,288.794 235.724 C 288.797 235.242,288.620 234.736,288.400 234.600 C 288.180 234.464,288.003 234.588,288.006 234.876 M289.594 238.100 C 290.827 240.189,296.400 245.082,296.400 244.074 C 296.400 243.843,296.048 243.542,295.618 243.406 C 294.587 243.078,290.127 238.630,289.801 237.603 C 289.661 237.162,289.384 236.800,289.187 236.800 C 288.989 236.800,289.172 237.385,289.594 238.100 M250.406 241.633 C 250.409 242.385,250.592 243.270,250.812 243.600 C 251.091 244.019,251.133 243.658,250.950 242.400 C 250.625 240.159,250.398 239.840,250.406 241.633 M251.228 245.300 C 251.213 245.905,251.380 246.400,251.600 246.400 C 252.069 246.400,252.069 246.093,251.600 245.000 C 251.295 244.291,251.253 244.325,251.228 245.300 M297.600 245.200 C 298.150 245.630,298.780 245.982,299.000 245.982 C 299.220 245.982,298.950 245.630,298.400 245.200 C 297.850 244.770,297.220 244.418,297.000 244.418 C 296.780 244.418,297.050 244.770,297.600 245.200 M302.800 247.790 C 302.800 247.895,303.565 248.322,304.500 248.741 C 308.925 250.721,310.138 251.195,310.317 251.016 C 310.424 250.910,309.994 250.626,309.361 250.385 C 307.643 249.732,305.533 248.799,304.338 248.164 C 303.229 247.575,302.800 247.470,302.800 247.790 M310.854 251.387 C 311.167 251.700,314.000 252.823,314.000 252.635 C 314.000 252.391,311.569 251.200,311.072 251.200 C 310.849 251.200,310.751 251.284,310.854 251.387 M255.277 255.500 C 256.269 257.570,257.003 258.800,257.246 258.800 C 257.410 258.800,257.091 257.990,256.538 257.000 C 255.722 255.541,254.732 254.363,255.277 255.500 M322.200 256.265 C 322.845 256.883,324.800 257.614,324.800 257.238 C 324.800 257.048,324.485 256.803,324.100 256.692 C 323.715 256.581,323.040 256.354,322.600 256.187 C 322.086 255.991,321.943 256.019,322.200 256.265 M325.758 257.932 C 325.917 258.189,326.228 258.400,326.450 258.400 C 326.672 258.400,328.461 259.206,330.426 260.192 C 332.392 261.177,333.997 261.852,333.994 261.692 C 333.990 261.531,332.356 260.624,330.361 259.675 C 325.739 257.476,325.396 257.346,325.758 257.932 M257.621 259.328 C 257.597 259.707,259.523 262.552,260.758 263.961 C 262.055 265.441,261.755 264.612,260.300 262.693 C 259.585 261.751,258.694 260.534,258.321 259.990 C 257.948 259.445,257.633 259.148,257.621 259.328 M338.394 264.382 C 338.941 264.802,339.468 265.066,339.565 264.969 C 339.791 264.742,338.329 263.627,337.800 263.622 C 337.580 263.620,337.847 263.961,338.394 264.382 M218.579 277.800 C 218.579 285.060,218.633 288.086,218.699 284.525 C 218.765 280.964,218.766 275.024,218.699 271.325 C 218.633 267.626,218.579 270.540,218.579 277.800 M262.800 266.164 C 263.350 266.804,264.505 267.974,265.366 268.764 C 266.227 269.554,267.127 270.388,267.366 270.617 C 268.148 271.368,273.200 274.875,273.200 274.667 C 273.200 274.556,271.895 273.519,270.300 272.363 C 268.705 271.207,266.140 269.078,264.600 267.631 C 263.060 266.184,262.250 265.524,262.800 266.164 M344.793 268.321 C 352.090 273.313,363.200 284.913,363.200 287.542 C 363.200 287.768,363.380 288.064,363.600 288.200 C 367.421 290.561,354.458 275.054,349.389 271.200 C 347.055 269.425,344.361 267.603,344.099 267.621 C 343.935 267.633,344.247 267.948,344.793 268.321 M277.600 277.495 C 277.600 277.884,279.214 278.919,279.451 278.682 C 279.547 278.586,279.169 278.210,278.612 277.845 C 278.056 277.480,277.600 277.322,277.600 277.495 M280.220 279.173 C 281.152 280.088,286.612 282.666,286.197 281.995 C 286.063 281.778,285.801 281.600,285.615 281.600 C 285.429 281.600,284.162 280.970,282.800 280.200 C 280.318 278.797,279.509 278.475,280.220 279.173 M288.000 283.200 C 288.770 283.622,289.580 283.966,289.800 283.966 C 290.020 283.966,289.570 283.622,288.800 283.200 C 288.030 282.778,287.220 282.434,287.000 282.434 C 286.780 282.434,287.230 282.778,288.000 283.200 M301.400 289.200 C 301.536 289.420,301.819 289.600,302.028 289.600 C 302.237 289.600,303.262 289.978,304.304 290.440 C 305.347 290.902,306.560 291.434,307.000 291.623 C 307.440 291.812,309.220 292.610,310.955 293.395 C 312.690 294.181,314.200 294.733,314.310 294.623 C 314.421 294.513,314.025 294.238,313.432 294.012 C 312.838 293.786,311.328 293.130,310.076 292.553 C 307.486 291.359,301.493 288.800,301.289 288.800 C 301.214 288.800,301.264 288.980,301.400 289.200 M320.000 298.000 C 320.550 298.430,321.180 298.782,321.400 298.782 C 321.620 298.782,321.350 298.430,320.800 298.000 C 320.250 297.570,319.620 297.218,319.400 297.218 C 319.180 297.218,319.450 297.570,320.000 298.000 M367.228 297.476 C 367.318 298.515,367.944 299.396,367.972 298.524 C 367.987 298.042,367.820 297.536,367.600 297.400 C 367.380 297.264,367.213 297.298,367.228 297.476 M322.000 299.066 C 322.000 299.265,322.585 299.770,323.300 300.189 C 325.201 301.303,328.514 304.770,329.330 306.500 C 330.052 308.030,330.581 308.566,330.120 307.300 C 329.684 306.101,327.737 303.456,326.338 302.162 C 324.377 300.346,322.000 298.650,322.000 299.066 M368.040 300.876 C 368.159 302.446,368.720 303.416,368.760 302.124 C 368.782 301.422,368.620 300.736,368.400 300.600 C 368.180 300.464,368.018 300.588,368.040 300.876 M369.069 307.485 C 369.386 311.028,369.600 311.192,369.600 307.890 C 369.600 306.437,369.426 305.140,369.214 305.008 C 368.971 304.858,368.917 305.779,369.069 307.485 M179.824 312.500 C 179.543 317.708,179.075 320.559,178.141 322.750 C 177.825 323.492,177.658 324.192,177.772 324.305 C 178.049 324.583,178.774 322.681,179.412 320.000 C 179.950 317.740,180.675 307.600,180.298 307.600 C 180.183 307.600,179.969 309.805,179.824 312.500 M330.434 309.200 C 330.422 309.750,330.587 310.470,330.800 310.800 C 331.309 311.587,331.309 310.184,330.800 309.000 C 330.485 308.267,330.454 308.284,330.434 309.200 M267.200 311.191 C 266.650 311.626,265.975 311.986,265.700 311.991 C 265.425 311.996,265.200 312.188,265.200 312.417 C 265.200 312.646,265.981 312.376,266.935 311.817 C 269.253 310.458,269.262 310.461,271.010 313.100 C 273.013 316.125,275.717 319.550,276.124 319.578 C 276.302 319.590,275.739 318.745,274.873 317.700 C 274.007 316.655,272.490 314.630,271.503 313.200 C 269.547 310.367,268.726 309.984,267.200 311.191 M218.477 313.800 C 218.430 315.120,218.291 316.920,218.169 317.800 C 217.994 319.065,218.040 319.255,218.390 318.706 C 218.654 318.294,218.778 316.675,218.698 314.706 C 218.585 311.934,218.549 311.788,218.477 313.800 M331.324 314.600 C 331.326 315.920,331.401 316.412,331.490 315.693 C 331.579 314.974,331.577 313.894,331.486 313.293 C 331.395 312.692,331.322 313.280,331.324 314.600 M135.200 313.996 C 135.200 314.244,135.388 314.331,135.618 314.189 C 135.847 314.047,136.326 314.172,136.683 314.466 C 137.231 314.918,137.300 314.908,137.134 314.400 C 136.902 313.693,135.200 313.337,135.200 313.996 M133.429 315.009 C 133.005 315.329,132.738 315.671,132.835 315.769 C 132.932 315.866,133.459 315.602,134.006 315.182 C 134.553 314.761,134.820 314.420,134.600 314.422 C 134.380 314.424,133.853 314.688,133.429 315.009 M257.600 316.800 C 257.050 317.230,256.780 317.582,257.000 317.582 C 257.220 317.582,257.850 317.230,258.400 316.800 C 258.950 316.370,259.220 316.018,259.000 316.018 C 258.780 316.018,258.150 316.370,257.600 316.800 M138.210 316.800 C 139.153 318.525,142.854 323.947,143.397 324.397 C 143.742 324.684,142.821 323.137,141.351 320.959 C 138.843 317.245,137.434 315.379,138.210 316.800 M129.780 317.161 C 129.571 317.360,127.420 318.725,125.000 320.195 C 122.580 321.664,120.420 323.064,120.200 323.307 C 119.980 323.549,120.250 323.475,120.800 323.142 C 121.350 322.810,123.825 321.319,126.300 319.831 C 128.775 318.342,130.800 317.051,130.800 316.962 C 130.800 316.669,130.168 316.793,129.780 317.161 M253.022 319.400 C 251.285 320.390,249.714 321.200,249.532 321.200 C 249.349 321.200,249.200 321.401,249.200 321.646 C 249.200 321.934,249.518 321.887,250.100 321.512 C 250.595 321.193,252.215 320.257,253.700 319.432 C 256.004 318.151,256.783 317.600,256.290 317.600 C 256.230 317.600,254.759 318.410,253.022 319.400 M330.692 318.242 C 330.531 318.402,330.411 318.998,330.425 319.567 L 330.451 320.600 330.837 319.634 C 331.253 318.594,331.167 317.767,330.692 318.242 M369.270 320.400 C 369.226 321.390,369.077 322.650,368.940 323.200 C 368.751 323.961,368.805 324.095,369.167 323.758 C 369.467 323.480,369.589 322.445,369.497 320.958 C 369.370 318.902,369.341 318.830,369.270 320.400 M279.365 323.020 C 281.106 324.660,282.619 325.915,282.726 325.807 C 282.834 325.699,282.402 325.204,281.765 324.706 C 281.129 324.208,279.733 322.945,278.664 321.900 C 277.594 320.855,276.602 320.008,276.459 320.019 C 276.317 320.029,277.624 321.380,279.365 323.020 M329.147 322.620 C 327.584 325.750,323.239 329.167,319.043 330.566 C 318.626 330.705,318.400 330.933,318.539 331.072 C 319.040 331.573,324.800 328.337,326.585 326.552 C 328.440 324.697,330.667 321.333,330.290 320.956 C 330.175 320.842,329.661 321.591,329.147 322.620 M217.662 322.000 C 217.622 322.550,217.477 323.450,217.340 324.000 C 217.149 324.768,217.203 324.896,217.573 324.553 C 217.851 324.294,217.987 323.450,217.895 322.553 C 217.804 321.674,217.703 321.434,217.662 322.000 M247.200 322.833 L 246.200 323.648 247.500 323.014 C 248.215 322.665,248.800 322.294,248.800 322.190 C 248.800 321.792,248.163 322.048,247.200 322.833 M115.600 326.033 L 114.600 326.848 115.900 326.214 C 116.615 325.865,117.200 325.494,117.200 325.390 C 117.200 324.992,116.563 325.248,115.600 326.033 M146.148 327.402 C 148.129 329.231,151.600 331.543,151.600 331.035 C 151.600 330.952,150.707 330.310,149.616 329.610 C 148.524 328.910,146.904 327.631,146.015 326.768 C 145.126 325.906,144.264 325.208,144.100 325.218 C 143.935 325.228,144.856 326.211,146.148 327.402 M176.493 326.000 C 176.218 326.440,176.131 326.800,176.300 326.800 C 176.469 326.800,176.832 326.440,177.107 326.000 C 177.382 325.560,177.469 325.200,177.300 325.200 C 177.131 325.200,176.768 325.560,176.493 326.000 M368.262 326.547 C 368.097 327.178,368.056 327.789,368.171 327.904 C 368.493 328.227,368.887 326.938,368.715 326.123 C 368.603 325.590,368.484 325.701,368.262 326.547 M216.662 327.347 C 216.497 327.978,216.456 328.589,216.571 328.704 C 216.893 329.027,217.287 327.738,217.115 326.923 C 217.003 326.390,216.884 326.501,216.662 327.347 M174.400 328.404 C 172.643 329.912,168.375 332.000,167.049 332.000 C 166.498 332.000,165.924 332.199,165.774 332.443 C 164.842 333.950,172.656 330.567,174.798 328.536 C 176.547 326.878,176.281 326.789,174.400 328.404 M110.628 329.000 C 109.349 329.770,108.145 330.400,107.952 330.400 C 107.758 330.400,107.600 330.580,107.600 330.800 C 107.600 331.020,107.358 331.200,107.062 331.200 C 106.253 331.200,105.074 332.673,105.427 333.243 C 105.642 333.592,105.822 333.492,106.042 332.899 C 106.212 332.438,107.892 331.120,109.776 329.969 C 112.800 328.121,113.526 327.600,113.076 327.600 C 113.009 327.600,111.907 328.230,110.628 329.000 M238.402 328.300 C 238.404 328.685,238.673 329.514,239.001 330.143 C 240.666 333.335,241.469 334.668,242.168 335.398 C 242.794 336.051,242.772 335.939,242.052 334.800 C 240.290 332.010,238.751 328.704,238.961 328.158 C 239.078 327.851,239.001 327.600,238.787 327.600 C 238.574 327.600,238.401 327.915,238.402 328.300 M285.800 327.908 C 286.465 328.586,290.417 330.517,290.654 330.279 C 290.776 330.158,289.823 329.555,288.538 328.940 C 285.453 327.465,285.315 327.413,285.800 327.908 M292.200 330.941 C 293.862 331.702,295.719 332.115,295.438 331.662 C 295.313 331.459,294.713 331.198,294.105 331.084 C 293.497 330.969,292.550 330.766,292.000 330.633 C 291.188 330.437,291.226 330.495,292.200 330.941 M316.000 331.600 C 316.000 332.069,316.307 332.069,317.400 331.600 C 318.109 331.295,318.075 331.253,317.100 331.228 C 316.495 331.213,316.000 331.380,316.000 331.600 M154.433 332.147 C 154.525 332.228,155.320 332.414,156.200 332.562 C 157.346 332.754,157.630 332.714,157.200 332.421 C 156.660 332.053,154.032 331.793,154.433 332.147 M296.800 332.400 C 298.342 332.894,299.164 332.894,298.400 332.400 C 298.070 332.187,297.350 332.027,296.800 332.046 L 295.800 332.080 296.800 332.400 M312.000 332.412 C 311.581 332.691,311.942 332.733,313.200 332.550 C 315.441 332.225,315.760 331.998,313.967 332.006 C 313.215 332.009,312.330 332.192,312.000 332.412 M160.900 333.076 C 161.285 333.176,161.915 333.176,162.300 333.076 C 162.685 332.975,162.370 332.893,161.600 332.893 C 160.830 332.893,160.515 332.975,160.900 333.076 M303.300 333.094 C 304.345 333.176,306.055 333.176,307.100 333.094 C 308.145 333.012,307.290 332.944,305.200 332.944 C 303.110 332.944,302.255 333.012,303.300 333.094 M106.000 334.115 C 106.000 334.685,106.955 336.400,107.273 336.400 C 107.463 336.400,107.309 335.905,106.930 335.300 C 106.032 333.864,106.000 333.823,106.000 334.115 M243.293 337.200 C 243.568 337.640,243.931 338.000,244.100 338.000 C 244.269 338.000,244.182 337.640,243.907 337.200 C 243.632 336.760,243.269 336.400,243.100 336.400 C 242.931 336.400,243.018 336.760,243.293 337.200 M213.091 338.291 C 212.223 340.205,212.486 340.469,213.382 338.582 C 213.759 337.786,213.998 337.065,213.912 336.979 C 213.826 336.893,213.457 337.484,213.091 338.291 M107.600 337.322 C 107.600 337.821,110.586 342.400,110.911 342.400 C 111.084 342.400,110.570 341.365,109.769 340.100 C 108.229 337.665,107.600 336.860,107.600 337.322 M363.272 339.734 C 362.609 340.908,361.159 343.068,360.050 344.534 C 358.940 346.001,358.128 347.200,358.245 347.200 C 358.815 347.200,362.601 341.960,363.953 339.300 C 365.177 336.890,364.708 337.189,363.272 339.734 M244.856 339.000 C 245.155 339.440,245.494 339.890,245.609 340.000 C 245.724 340.110,247.462 342.090,249.472 344.400 C 252.523 347.908,255.109 350.400,255.697 350.400 C 255.768 350.400,254.291 348.825,252.413 346.900 C 250.536 344.975,247.945 342.230,246.656 340.800 C 245.367 339.370,244.557 338.560,244.856 339.000 M211.351 341.700 C 210.983 342.415,210.417 343.405,210.095 343.900 C 209.772 344.395,209.680 344.800,209.891 344.800 C 210.208 344.800,210.797 343.798,212.302 340.700 C 212.786 339.703,211.899 340.635,211.351 341.700 M112.068 344.152 C 112.581 344.943,113.147 345.592,113.327 345.595 C 113.699 345.601,112.182 343.359,111.549 342.969 C 111.322 342.828,111.555 343.360,112.068 344.152 M208.645 346.188 C 208.280 346.744,208.122 347.200,208.295 347.200 C 208.684 347.200,209.719 345.586,209.482 345.349 C 209.386 345.253,209.010 345.631,208.645 346.188 M114.809 347.400 C 116.267 349.491,123.764 356.396,124.580 356.399 C 124.820 356.399,124.820 356.283,124.580 356.081 C 124.371 355.906,123.128 354.871,121.818 353.781 C 120.507 352.692,118.269 350.630,116.843 349.200 C 115.418 347.770,114.502 346.960,114.809 347.400 M204.523 351.112 C 202.720 353.019,201.287 354.620,201.338 354.672 C 201.511 354.845,206.340 350.008,207.200 348.800 C 208.485 346.996,208.104 347.325,204.523 351.112 M355.043 350.214 C 353.966 351.206,353.167 352.100,353.267 352.200 C 353.367 352.300,354.331 351.486,355.409 350.391 C 357.853 347.910,357.648 347.811,355.043 350.214 M257.000 351.649 C 259.332 353.545,261.255 354.879,261.419 354.714 C 261.511 354.622,260.467 353.749,259.099 352.774 C 256.287 350.768,255.201 350.186,257.000 351.649 M351.185 353.632 L 349.800 354.863 351.088 354.013 C 352.230 353.259,353.093 352.400,352.708 352.400 C 352.632 352.400,351.947 352.954,351.185 353.632 M264.000 356.367 C 264.963 357.152,265.600 357.408,265.600 357.010 C 265.600 356.906,265.015 356.535,264.300 356.186 L 263.000 355.552 264.000 356.367 M125.200 356.695 C 125.200 357.084,126.814 358.119,127.051 357.882 C 127.147 357.786,126.769 357.410,126.212 357.045 C 125.656 356.680,125.200 356.522,125.200 356.695 M197.594 357.218 C 197.047 357.639,196.780 357.980,197.000 357.978 C 197.529 357.973,198.991 356.858,198.765 356.631 C 198.668 356.534,198.141 356.798,197.594 357.218 M344.700 357.829 C 344.095 358.157,343.600 358.510,343.600 358.613 C 343.600 358.999,344.232 358.757,345.200 358.000 C 346.389 357.070,346.211 357.009,344.700 357.829 M195.856 358.300 C 195.660 358.608,188.431 362.292,187.000 362.813 C 185.088 363.509,184.240 363.948,184.757 363.973 C 185.345 364.002,192.058 361.234,192.400 360.821 C 192.510 360.689,193.455 360.135,194.500 359.591 C 195.545 359.047,196.400 358.466,196.400 358.301 C 196.400 357.914,196.102 357.914,195.856 358.300 M128.960 359.134 C 129.172 359.479,133.648 361.742,134.988 362.183 C 136.446 362.663,135.332 361.987,132.034 360.393 C 130.232 359.521,128.849 358.955,128.960 359.134 M339.800 360.378 C 338.920 360.795,338.397 361.150,338.639 361.168 C 339.128 361.204,341.600 360.038,341.600 359.771 C 341.600 359.530,341.576 359.538,339.800 360.378 M273.002 360.748 C 273.579 361.307,282.023 364.062,282.553 363.865 C 282.799 363.774,282.460 363.568,281.800 363.408 C 281.140 363.248,278.801 362.498,276.602 361.740 C 274.403 360.983,272.783 360.537,273.002 360.748 M336.000 361.839 C 335.010 362.169,333.840 362.596,333.400 362.789 C 332.960 362.981,332.084 363.251,331.453 363.388 C 330.822 363.526,330.413 363.747,330.545 363.878 C 330.814 364.147,337.189 362.096,337.780 361.551 C 338.267 361.101,338.160 361.118,336.000 361.839 M136.000 362.568 C 136.000 362.840,140.034 364.099,140.241 363.892 C 140.346 363.788,139.535 363.409,138.440 363.051 C 136.339 362.364,136.000 362.297,136.000 362.568 M182.400 364.400 C 181.867 364.745,181.867 364.788,182.400 364.788 C 182.730 364.788,183.270 364.613,183.600 364.400 C 184.133 364.055,184.133 364.012,183.600 364.012 C 183.270 364.012,182.730 364.187,182.400 364.400 M284.000 364.400 C 284.330 364.613,284.960 364.778,285.400 364.766 L 286.200 364.744 285.400 364.400 C 284.204 363.886,283.205 363.886,284.000 364.400 M328.000 364.400 C 327.467 364.745,327.467 364.788,328.000 364.788 C 328.330 364.788,328.870 364.613,329.200 364.400 C 329.733 364.055,329.733 364.012,329.200 364.012 C 328.870 364.012,328.330 364.187,328.000 364.400 M179.200 365.200 C 178.712 365.515,178.764 365.589,179.476 365.594 C 179.958 365.597,180.464 365.420,180.600 365.200 C 180.915 364.691,179.988 364.691,179.200 365.200 M287.800 365.200 C 287.936 365.420,288.442 365.597,288.924 365.594 C 289.636 365.589,289.688 365.515,289.200 365.200 C 288.412 364.691,287.485 364.691,287.800 365.200 M324.400 365.200 C 323.912 365.515,323.964 365.589,324.676 365.594 C 325.158 365.597,325.664 365.420,325.800 365.200 C 326.115 364.691,325.188 364.691,324.400 365.200 M148.190 365.984 C 148.332 366.213,148.917 366.400,149.490 366.400 C 150.744 366.400,150.599 366.208,149.066 365.840 C 148.323 365.662,148.021 365.711,148.190 365.984 M175.000 366.000 C 174.286 366.307,174.315 366.347,175.276 366.372 C 175.868 366.387,176.464 366.220,176.600 366.000 C 176.895 365.522,176.111 365.522,175.000 366.000 M292.200 366.000 C 292.336 366.220,292.932 366.387,293.524 366.372 C 294.485 366.347,294.514 366.307,293.800 366.000 C 292.689 365.522,291.905 365.522,292.200 366.000 M320.000 366.000 C 319.053 366.303,319.068 366.322,320.300 366.360 C 321.015 366.382,321.600 366.220,321.600 366.000 C 321.600 365.548,321.412 365.548,320.000 366.000 M153.200 366.788 C 153.738 367.146,158.770 367.407,158.367 367.055 C 158.275 366.975,156.940 366.792,155.400 366.649 C 153.479 366.470,152.788 366.513,153.200 366.788 M167.600 366.800 L 165.400 367.070 168.076 367.135 C 169.548 367.171,170.864 367.020,171.000 366.800 C 171.262 366.376,171.061 366.376,167.600 366.800 M298.000 366.806 C 298.543 367.152,306.360 367.396,305.967 367.055 C 305.875 366.976,303.910 366.801,301.600 366.668 C 298.874 366.510,297.611 366.559,298.000 366.806 M310.800 366.800 L 307.800 367.056 311.676 367.128 C 313.911 367.169,315.657 367.031,315.800 366.800 C 316.061 366.377,315.755 366.377,310.800 366.800 " stroke="none" fill="#dcd6ec" fill-rule="evenodd"></path></g></svg>