<svg id="svg" version="1.1" xmlns="http://www.w3.org/2000/svg" xmlns:xlink="http://www.w3.org/1999/xlink" width="400" height="400" viewBox="0, 0, 400,400"><g id="svgg"><path id="path0" d="M118.857 24.768 C 99.273 26.244,82.197 32.264,67.743 42.789 C 34.796 66.780,19.330 100.037,18.655 148.347 C 17.817 208.300,36.247 246.406,76.776 268.518 C 92.224 276.946,106.984 280.426,127.286 280.428 C 139.576 280.429,144.680 279.906,154.000 277.690 C 162.543 275.659,179.403 269.088,180.460 267.377 C 180.545 267.240,179.905 264.978,179.038 262.350 C 174.778 249.432,170.055 233.637,165.863 218.286 C 164.984 215.064,164.197 212.206,164.114 211.933 C 163.916 211.278,161.690 212.375,158.429 214.735 C 146.108 223.654,125.087 226.034,108.714 220.364 C 90.060 213.904,80.169 197.439,77.085 167.714 C 76.495 162.027,76.590 141.836,77.232 136.481 C 80.882 106.029,93.347 89.323,116.286 84.139 C 129.803 81.084,148.838 83.870,158.287 90.287 C 181.415 105.992,211.924 80.155,200.204 54.788 C 191.680 36.340,153.294 22.173,118.857 24.768 M328.588 313.456 C 327.576 313.612,326.355 313.911,325.874 314.121 C 325.393 314.331,324.164 314.792,323.143 315.146 C 309.489 319.869,303.086 330.407,303.528 347.429 C 303.749 355.924,304.397 358.240,308.121 363.836 C 319.789 381.372,348.635 379.654,358.144 360.857 C 361.652 353.923,362.329 340.651,359.584 332.604 C 355.343 320.167,341.314 311.501,328.588 313.456 " stroke="none" fill="#34245c" fill-rule="evenodd"></path><path id="path1" d="M346.286 114.495 C 342.914 114.638,340.536 115.185,337.902 116.423 C 336.463 117.099,334.283 118.113,333.057 118.676 C 323.872 122.895,318.248 131.181,316.453 143.143 C 315.611 148.756,304.244 188.939,296.530 213.571 C 285.944 247.378,277.115 271.202,266.068 295.777 C 262.060 304.692,262.671 304.855,256.763 293.286 C 243.882 268.059,228.611 218.605,211.134 145.517 C 205.743 122.972,198.384 115.774,180.202 115.262 C 171.068 115.004,167.209 116.117,161.473 120.664 C 151.338 128.695,147.057 138.670,148.989 149.748 C 150.407 157.880,162.087 205.724,164.146 211.836 C 164.520 212.948,165.294 215.593,165.865 217.714 C 169.001 229.363,174.297 247.194,178.551 260.426 C 179.662 263.882,180.571 266.869,180.571 267.064 C 180.571 268.754,192.529 300.835,197.001 311.143 C 197.580 312.479,198.504 314.857,199.053 316.429 C 199.603 318.000,200.477 319.993,200.996 320.857 C 201.514 321.721,202.846 324.246,203.955 326.467 C 219.848 358.306,240.591 375.722,262.714 375.803 C 279.036 375.863,290.906 369.863,301.381 356.256 L 303.477 353.534 303.538 345.410 C 303.605 336.473,303.753 335.469,305.704 330.784 C 308.679 323.637,315.411 317.630,323.560 314.850 L 325.835 314.074 328.292 308.394 C 346.078 267.266,362.442 216.051,376.766 156.684 L 378.689 148.714 378.700 144.143 C 378.740 128.467,362.704 113.800,346.286 114.495 " stroke="none" fill="#fbc363" fill-rule="evenodd"></path><path id="path2" d="" stroke="none" fill="#a9825c" fill-rule="evenodd"></path><path id="path3" d="" stroke="none" fill="#8c6c5c" fill-rule="evenodd"></path><path id="path4" d="" stroke="none" fill="#946c5c" fill-rule="evenodd"></path></g></svg>