<svg id="SvgjsSvg1001" width="288" height="288" xmlns="http://www.w3.org/2000/svg" version="1.1" xmlns:xlink="http://www.w3.org/1999/xlink" xmlns:svgjs="http://svgjs.com/svgjs"><defs id="SvgjsDefs1002"></defs><g id="SvgjsG1008" transform="matrix(1,0,0,1,0,0)"><svg xmlns="http://www.w3.org/2000/svg" width="288" height="288" enable-background="new 0 0 92.833 92.833" viewBox="0 0 92.833 92.833"><path d="M89.834 1.75H3c-1.654 0-3 1.346-3 3v13.334c0 1.654 1.346 3 3 3h86.833c1.653 0 3-1.346 3-3V4.75C92.834 3.096 91.488 1.75 89.834 1.75zM89.834 36.75H3c-1.654 0-3 1.346-3 3v13.334c0 1.654 1.346 3 3 3h86.833c1.653 0 3-1.346 3-3V39.75C92.834 38.096 91.488 36.75 89.834 36.75zM89.834 71.75H3c-1.654 0-3 1.346-3 3v13.334c0 1.654 1.346 3 3 3h86.833c1.653 0 3-1.346 3-3V74.75C92.834 73.095 91.488 71.75 89.834 71.75z" fill="#30275b" class="color000 svgShape"></path></svg></g></svg>